<?xml version="1.0" encoding="UTF-8" standalone="no"?>
<!-- Created with Inkscape (http://www.inkscape.org/) -->

<svg
   xmlns:dc="http://purl.org/dc/elements/1.1/"
   xmlns:cc="http://creativecommons.org/ns#"
   xmlns:rdf="http://www.w3.org/1999/02/22-rdf-syntax-ns#"
   xmlns:svg="http://www.w3.org/2000/svg"
   xmlns="http://www.w3.org/2000/svg"
   xmlns:sodipodi="http://sodipodi.sourceforge.net/DTD/sodipodi-0.dtd"
   xmlns:inkscape="http://www.inkscape.org/namespaces/inkscape"
   width="16"
   height="16"
   id="svg3648"
   version="1.1"
   inkscape:version="0.91 r13725"
   viewBox="0 0 16 16"
   sodipodi:docname="comment.svg"
   inkscape:export-filename="C:\X mini_server\udrive\www\pa\images\comment32.png"
   inkscape:export-xdpi="180"
   inkscape:export-ydpi="180">
  <defs
     id="defs3650" />
  <sodipodi:namedview
     id="base"
     pagecolor="#ffffff"
     bordercolor="#666666"
     borderopacity="1.0"
     inkscape:pageopacity="0.0"
     inkscape:pageshadow="2"
     inkscape:zoom="22.395604"
     inkscape:cx="1.8695439"
     inkscape:cy="5.1940499"
     inkscape:current-layer="layer1"
     showgrid="true"
     inkscape:grid-bbox="true"
     inkscape:document-units="px"
     inkscape:window-width="730"
     inkscape:window-height="577"
     inkscape:window-x="235"
     inkscape:window-y="113"
     inkscape:window-maximized="0"
     inkscape:snap-bbox="false"
     inkscape:bbox-nodes="false"
     inkscape:snap-nodes="false"
     inkscape:snap-global="false">
    <inkscape:grid
       type="xygrid"
       id="grid5265" />
  </sodipodi:namedview>
  <metadata
     id="metadata3653">
    <rdf:RDF>
      <cc:Work
         rdf:about="">
        <dc:format>image/svg+xml</dc:format>
        <dc:type
           rdf:resource="http://purl.org/dc/dcmitype/StillImage" />
        <dc:title />
      </cc:Work>
    </rdf:RDF>
  </metadata>
  <g
     id="layer1"
     inkscape:label="Layer 1"
     inkscape:groupmode="layer"
     transform="translate(0,-16)">
    <g
       id="layer1-5"
       inkscape:label="Layer 1"
       transform="matrix(0.00848308,0,0,0.00876207,6.2874809,19.750385)"
       style="fill:#0066cc">
      <g
         style="fill:#0066cc"
         transform="matrix(1,0,0,-1,-775.07143,1258.2908)"
         id="g3424">
        <path
           style="fill:#0066cc"
           inkscape:connector-curvature="0"
           d="M 1920,702 Q 1920,499 1652.5,355.5 1385,212 1006,212 823,212 656,250 646,141 522.5,69.5 399,-2 233,-2 128,-2 53,86 q 128,11 209,78 81,67 81,171 0,16 -2,32 -248,141 -248,335 0,203 267.5,346 267.5,143 645.5,143 379,0 646.5,-143 Q 1920,905 1920,702 Z"
           id="path3426" />
      </g>
    </g>
  </g>
</svg>
