<?xml version="1.0" encoding="UTF-8" standalone="no"?>
<!-- Created with Inkscape (http://www.inkscape.org/) -->

<svg
   xmlns:dc="http://purl.org/dc/elements/1.1/"
   xmlns:cc="http://creativecommons.org/ns#"
   xmlns:rdf="http://www.w3.org/1999/02/22-rdf-syntax-ns#"
   xmlns:svg="http://www.w3.org/2000/svg"
   xmlns="http://www.w3.org/2000/svg"
   xmlns:sodipodi="http://sodipodi.sourceforge.net/DTD/sodipodi-0.dtd"
   xmlns:inkscape="http://www.inkscape.org/namespaces/inkscape"
   width="16px"
   height="16px"
   viewBox="0 0 744.09448819 1052.3622047"
   id="svg3427"
   version="1.1"
   inkscape:version="0.91 r13725"
   sodipodi:docname="duplicateandtasks.svg"
   inkscape:export-filename="C:\X mini_server\udrive\www\pa\images\duplicateandtasks32.png"
   inkscape:export-xdpi="180"
   inkscape:export-ydpi="180">
  <defs
     id="defs3429" />
  <sodipodi:namedview
     id="base"
     pagecolor="#ffffff"
     bordercolor="#666666"
     borderopacity="1.0"
     inkscape:pageopacity="0.0"
     inkscape:pageshadow="2"
     inkscape:zoom="31.678384"
     inkscape:cx="4.4373214"
     inkscape:cy="9.2978712"
     inkscape:document-units="px"
     inkscape:current-layer="layer2"
     showgrid="true"
     inkscape:snap-bbox="true"
     inkscape:snap-bbox-edge-midpoints="false"
     inkscape:snap-bbox-midpoints="false"
     inkscape:bbox-nodes="true"
     inkscape:snap-nodes="false"
     inkscape:bbox-paths="true"
     inkscape:snap-global="true"
     inkscape:snap-object-midpoints="false"
     showguides="false"
     inkscape:window-width="1366"
     inkscape:window-height="706"
     inkscape:window-x="-8"
     inkscape:window-y="-8"
     inkscape:window-maximized="1">
    <inkscape:grid
       type="xygrid"
       id="grid3435" />
  </sodipodi:namedview>
  <metadata
     id="metadata3432">
    <rdf:RDF>
      <cc:Work
         rdf:about="">
        <dc:format>image/svg+xml</dc:format>
        <dc:type
           rdf:resource="http://purl.org/dc/dcmitype/StillImage" />
        <dc:title />
      </cc:Work>
    </rdf:RDF>
  </metadata>
  <g
     inkscape:label="Layer 1"
     inkscape:groupmode="layer"
     id="layer1"
     style="display:inline">
    <g
       id="g9384"
       transform="matrix(0.77964483,0,0,0.77964483,-33.861707,233.36384)">
      <path
         sodipodi:nodetypes="ccccc"
         inkscape:connector-curvature="0"
         id="path4339"
         d="m -120.77916,493.29476 0,528.70144 990.63722,4.1525 4.15253,-528.70142 -978.17965,-4.15252"
         style="fill:#ffffff;fill-opacity:1;fill-rule:evenodd;stroke:#003399;stroke-width:65.77263641;stroke-linecap:round;stroke-linejoin:round;stroke-miterlimit:4;stroke-dasharray:none;stroke-opacity:1" />
      <rect
         y="876.72821"
         x="-0.90464282"
         height="22.404785"
         width="762.34363"
         id="rect4390-9-7"
         style="fill:#0066cc;fill-opacity:1;stroke:#0066cc;stroke-width:43.36787796;stroke-linecap:round;stroke-linejoin:round;stroke-miterlimit:4;stroke-dasharray:none;stroke-opacity:1" />
      <rect
         y="745.18292"
         x="-0.90464282"
         height="22.404783"
         width="762.34357"
         id="rect4390-9-7-0"
         style="fill:#0066cc;fill-opacity:1;stroke:#0066cc;stroke-width:43.36787796;stroke-linecap:round;stroke-linejoin:round;stroke-miterlimit:4;stroke-dasharray:none;stroke-opacity:1" />
      <rect
         y="613.6377"
         x="-0.90464282"
         height="22.404781"
         width="762.34351"
         id="rect4390-9-7-0-3"
         style="fill:#0066cc;fill-opacity:1;stroke:#0066cc;stroke-width:43.36787796;stroke-linecap:round;stroke-linejoin:round;stroke-miterlimit:4;stroke-dasharray:none;stroke-opacity:1" />
    </g>
    <path
       style="fill:#ffffff;fill-opacity:1;fill-rule:evenodd;stroke:#003399;stroke-width:51.27929688;stroke-linecap:round;stroke-linejoin:round;stroke-miterlimit:4;stroke-dasharray:none;stroke-opacity:1"
       d="m 97.006351,486.41329 0,412.19951 772.344869,3.23748 3.2375,-412.1995 -762.6324,-3.23749"
       id="path4339-5"
       inkscape:connector-curvature="0"
       sodipodi:nodetypes="ccccc" />
    <rect
       style="fill:#0066cc;fill-opacity:1;stroke:#0066cc;stroke-width:23.20178604;stroke-linecap:round;stroke-linejoin:round;stroke-miterlimit:4;stroke-dasharray:none;stroke-opacity:1"
       id="rect4390-9-7-2"
       width="174.11612"
       height="28.077539"
       x="186.33023"
       y="800.87256" />
    <rect
       style="fill:#0066cc;fill-opacity:1;stroke:#0066cc;stroke-width:23.25429726;stroke-linecap:round;stroke-linejoin:round;stroke-miterlimit:4;stroke-dasharray:none;stroke-opacity:1"
       id="rect4390-9-7-0-38"
       width="175.23285"
       height="28.025026"
       x="185.18724"
       y="677.51807" />
    <rect
       style="fill:#0066cc;fill-opacity:1;stroke:#0066cc;stroke-width:23.25429726;stroke-linecap:round;stroke-linejoin:round;stroke-miterlimit:4;stroke-dasharray:none;stroke-opacity:1"
       id="rect4390-9-7-0-3-7"
       width="175.23285"
       height="28.025024"
       x="185.18724"
       y="574.95947" />
  </g>
  <g
     inkscape:groupmode="layer"
     id="layer3"
     inkscape:label="Layer 3"
     style="display:inline">
    <rect
       style="fill:#ffffff;fill-opacity:1;stroke:none;stroke-width:76.31880188;stroke-linecap:round;stroke-linejoin:round;stroke-miterlimit:4;stroke-dasharray:none;stroke-opacity:1"
       id="rect4805"
       width="517.39496"
       height="526.18109"
       x="380.83337"
       y="460.40845" />
  </g>
  <g
     inkscape:groupmode="layer"
     id="layer2"
     inkscape:label="Layer 2"
     style="display:inline">
    <g
       id="g4746"
       transform="matrix(0.7181866,0,0,0.71818659,320.67846,399.57905)">
      <g
         style="fill:#003399"
         transform="matrix(0.70754454,0,0,-0.70754453,-142.46107,857.11988)"
         id="g3338">
        <path
           style="fill:#003399"
           inkscape:connector-curvature="0"
           d="m 580,1382 -16,23 q -31,43 -33,75 l 345,0 q -3,-32 -33,-75 l -16,-23 185,0 q 153,0 187.5,-35 34.5,-35 34.5,-187 l 0,-938 Q 1234,79 1192.5,39.5 1151,0 999,0 L 407,0 Q 256,0 214.5,39.5 173,79 173,222 l 0,938 q 0,152 34.5,187 34.5,35 187.5,35 l 185,0 z m -123,-148 493,0 -197,98 0,50 49,49 -197,0 49,-49 0,-50 z m 92,98 -154,0 Q 273,1332 247.5,1307 222,1282 222,1160 l 0,-938 Q 222,105 250,77 278,49 395,49 l 617,0 q 117,0 145,28 28,28 28,145 l 0,938 q 0,122 -25.5,147 -25.5,25 -147.5,25 l -154,0 109,-54 q 76,-37 82,-94 l -691,0 q 6,57 82,94 z"
           id="path3340" />
      </g>
      <g
         transform="matrix(0.33146515,0,0,-0.38492844,220.89653,577.95264)"
         id="g3352">
        <path
           style="fill:currentColor"
           inkscape:connector-curvature="0"
           d="m 74,-37 330,507 1375,1047 q 236,-71 257,-333 L 657,137 Z m 1460,1305 q 151,-80 188,-254 l 257,195 q -35,184 -190,251 z M 526,502 q 17,4 28,4 40,0 40,-38 l -1,-10 829,635 q -33,25 -65,39 z m 96,-82 q 46,-11 46,-59 l 833,638 q -15,33 -42,59 z m 75,-98 q 19,-1 28,-9.5 9,-8.5 9,-24.5 0,-14 -13,-41 l 828,633 q -12,43 -26,75 z M 258,157 315,85 626,177 q 68,60 68,89 0,12 -6.5,17.5 -6.5,5.5 -20.5,5.5 -29,0 -100,-35 60,57 60,95 0,19 -10.5,28.5 -10.5,9.5 -32.5,9.5 -23,0 -94,-34 63,54 63,95 0,11 -6,16.5 -6,5.5 -19,5.5 -45,0 -96,-39 z"
           id="path3354" />
      </g>
      <rect
         inkscape:transform-center-y="-0.75776312"
         inkscape:transform-center-x="-0.063146927"
         y="84.038765"
         x="110.03954"
         height="95.01313"
         width="129.37958"
         id="rect3364-6"
         style="fill:#003399" />
      <rect
         y="215.58405"
         x="110.03954"
         height="95.01313"
         width="129.37958"
         id="rect3364-6-7"
         style="fill:#003399" />
      <rect
         y="347.12933"
         x="110.03954"
         height="95.01313"
         width="129.37958"
         id="rect3364-6-7-6"
         style="fill:#003399" />
      <rect
         y="478.67456"
         x="110.03954"
         height="95.01313"
         width="129.37958"
         id="rect3364-6-7-6-6"
         style="fill:#003399" />
      <rect
         y="610.21985"
         x="110.03954"
         height="95.01313"
         width="129.37958"
         id="rect3364-6-7-6-6-0"
         style="fill:#003399" />
    </g>
  </g>
</svg>
