<?xml version="1.0" encoding="UTF-8" standalone="no"?>
<svg
   xmlns:dc="http://purl.org/dc/elements/1.1/"
   xmlns:cc="http://creativecommons.org/ns#"
   xmlns:rdf="http://www.w3.org/1999/02/22-rdf-syntax-ns#"
   xmlns:svg="http://www.w3.org/2000/svg"
   xmlns="http://www.w3.org/2000/svg"
   xmlns:sodipodi="http://sodipodi.sourceforge.net/DTD/sodipodi-0.dtd"
   xmlns:inkscape="http://www.inkscape.org/namespaces/inkscape"
   version="1.1"
   viewBox="0 -410 16 16"
   id="svg3336"
   inkscape:version="0.91 r13725"
   sodipodi:docname="edit.svg"
   width="16"
   height="16"
   inkscape:export-filename="C:\X mini_server\udrive\www\pa\images\edit32.png"
   inkscape:export-xdpi="180"
   inkscape:export-ydpi="180">
  <metadata
     id="metadata3346">
    <rdf:RDF>
      <cc:Work
         rdf:about="">
        <dc:format>image/svg+xml</dc:format>
        <dc:type
           rdf:resource="http://purl.org/dc/dcmitype/StillImage" />
        <dc:title />
      </cc:Work>
    </rdf:RDF>
  </metadata>
  <defs
     id="defs3344" />
  <sodipodi:namedview
     pagecolor="#ffffff"
     bordercolor="#666666"
     borderopacity="1"
     objecttolerance="10"
     gridtolerance="10"
     guidetolerance="10"
     inkscape:pageopacity="0"
     inkscape:pageshadow="2"
     inkscape:window-width="1366"
     inkscape:window-height="706"
     id="namedview3342"
     showgrid="false"
     inkscape:zoom="11.733553"
     inkscape:cx="9.9720313"
     inkscape:cy="4.2373341"
     inkscape:window-x="-8"
     inkscape:window-y="-8"
     inkscape:window-maximized="1"
     inkscape:current-layer="svg3336" />
  <g
     transform="matrix(0.00816027,0,0,-0.00816027,-0.5027611,-395.37939)"
     id="g3338"
     style="fill:#003399">
    <path
       d="m 74,-37 330,507 1375,1047 q 236,-71 257,-333 L 657,137 Z m 1460,1305 q 151,-80 188,-254 l 257,195 q -35,184 -190,251 z M 526,502 q 17,4 28,4 40,0 40,-38 l -1,-10 829,635 q -33,25 -65,39 z m 96,-82 q 46,-11 46,-59 l 833,638 q -15,33 -42,59 z m 75,-98 q 19,-1 28,-9.5 9,-8.5 9,-24.5 0,-14 -13,-41 l 828,633 q -12,43 -26,75 z M 258,157 315,85 626,177 q 68,60 68,89 0,12 -6.5,17.5 -6.5,5.5 -20.5,5.5 -29,0 -100,-35 60,57 60,95 0,19 -10.5,28.5 -10.5,9.5 -32.5,9.5 -23,0 -94,-34 63,54 63,95 0,11 -6,16.5 -6,5.5 -19,5.5 -45,0 -96,-39 z"
       id="path3340"
       inkscape:connector-curvature="0"
       style="fill:#003399" />
  </g>
</svg>
