<?xml version="1.0" encoding="UTF-8" standalone="no"?>
<!-- Generator: IcoMoon.io -->

<svg
   xmlns:dc="http://purl.org/dc/elements/1.1/"
   xmlns:cc="http://creativecommons.org/ns#"
   xmlns:rdf="http://www.w3.org/1999/02/22-rdf-syntax-ns#"
   xmlns:svg="http://www.w3.org/2000/svg"
   xmlns="http://www.w3.org/2000/svg"
   xmlns:sodipodi="http://sodipodi.sourceforge.net/DTD/sodipodi-0.dtd"
   xmlns:inkscape="http://www.inkscape.org/namespaces/inkscape"
   width="512"
   height="512"
   viewBox="0 0 512 512"
   fill="#000000"
   id="svg3336"
   version="1.1"
   inkscape:version="0.91 r13725"
   sodipodi:docname="eye-edit.svg"
   inkscape:export-filename="C:\Users\labuschagnepa01\Documents\_Accessories\PA\udrive\www\pa\images\eye-edit16.png"
   inkscape:export-xdpi="2.8013196"
   inkscape:export-ydpi="2.8013196">
  <metadata
     id="metadata3407">
    <rdf:RDF>
      <cc:Work
         rdf:about="">
        <dc:format>image/svg+xml</dc:format>
        <dc:type
           rdf:resource="http://purl.org/dc/dcmitype/StillImage" />
        <dc:title></dc:title>
      </cc:Work>
    </rdf:RDF>
  </metadata>
  <defs
     id="defs3405" />
  <sodipodi:namedview
     pagecolor="#ffffff"
     bordercolor="#666666"
     borderopacity="1"
     objecttolerance="10"
     gridtolerance="10"
     guidetolerance="10"
     inkscape:pageopacity="0"
     inkscape:pageshadow="2"
     inkscape:window-width="1366"
     inkscape:window-height="706"
     id="namedview3403"
     showgrid="false"
     inkscape:zoom="0.53515625"
     inkscape:cx="327.72177"
     inkscape:cy="252.22849"
     inkscape:window-x="-8"
     inkscape:window-y="-8"
     inkscape:window-maximized="1"
     inkscape:current-layer="svg3336" />
  <path
     d="m 303.07125,300.85784 c -86.05408,0 -162.45256,41.33037 -210.441429,105.22072 47.988869,63.89116 124.387349,105.22071 210.441429,105.22071 86.05411,0 162.45257,-41.32955 210.44143,-105.22071 C 465.52382,342.18821 389.12536,300.85784 303.07125,300.85784 Z m -26.30518,52.61035 c 14.52787,0 26.30518,11.77732 26.30518,26.30519 0,14.52785 -11.77731,26.30518 -26.30518,26.30518 -14.52785,0 -26.30517,-11.77733 -26.30517,-26.30518 0,-14.52787 11.77732,-26.30519 26.30517,-26.30519 z M 410.60024,459.2216 c -16.29606,8.3264 -33.56048,14.73995 -51.31399,19.06139 -18.28539,4.45378 -37.19799,6.71111 -56.215,6.71111 -19.01617,0 -37.9296,-2.25733 -56.21415,-6.70948 -17.75355,-4.32307 -35.01796,-10.73662 -51.31402,-19.06139 -25.90238,-13.23561 -49.41345,-31.40591 -68.90312,-53.14385 19.48967,-21.73796 43.00074,-39.90989 68.90312,-53.14387 13.2907,-6.79084 27.22667,-12.30834 41.54657,-16.45718 -8.17435,12.43003 -12.93394,27.30561 -12.93394,43.29505 0,43.58439 35.33198,78.91553 78.91554,78.91553 43.58356,0 78.91554,-35.33114 78.91554,-78.91553 0,-15.98944 -4.76042,-30.86502 -12.93309,-43.29668 14.31905,4.14964 28.25504,9.66715 41.54654,16.45799 25.90322,13.23397 49.41182,31.4051 68.90233,53.14387 -19.49051,21.73711 -42.99994,39.90988 -68.90233,53.14304 z m 35.88274,-189.71543 c -44.68592,-22.8337 -92.93619,-34.41127 -143.41173,-34.41127 -50.47553,0 -98.72579,11.57757 -143.41171,34.41127 -24.15638,12.34371 -46.74596,27.90979 -67.029719,46.0653 l 0,44.88568 c 22.744949,-24.07171 49.607459,-44.28887 78.995269,-59.30585 40.94566,-20.92247 85.17042,-31.53087 131.44616,-31.53087 46.27574,0 90.50051,10.6084 131.44533,31.5317 29.38864,15.01696 56.25117,35.23414 78.9961,59.30584 l 0,-44.88567 c -20.28375,-18.15634 -42.87251,-33.72242 -67.0297,-46.06613 z"
     id="path3401"
     style="fill:#003399"
     inkscape:connector-curvature="0" />
  <g
     transform="matrix(0.22002011,0,0,-0.22002011,-16.812253,334.99018)"
     id="g3338"
     style="fill:#003399">
    <path
       d="m 74,-37 330,507 1375,1047 q 236,-71 257,-333 L 657,137 Z m 1460,1305 q 151,-80 188,-254 l 257,195 q -35,184 -190,251 z M 526,502 q 17,4 28,4 40,0 40,-38 l -1,-10 829,635 q -33,25 -65,39 z m 96,-82 q 46,-11 46,-59 l 833,638 q -15,33 -42,59 z m 75,-98 q 19,-1 28,-9.5 9,-8.5 9,-24.5 0,-14 -13,-41 l 828,633 q -12,43 -26,75 z M 258,157 315,85 626,177 q 68,60 68,89 0,12 -6.5,17.5 -6.5,5.5 -20.5,5.5 -29,0 -100,-35 60,57 60,95 0,19 -10.5,28.5 -10.5,9.5 -32.5,9.5 -23,0 -94,-34 63,54 63,95 0,11 -6,16.5 -6,5.5 -19,5.5 -45,0 -96,-39 z"
       id="path3340"
       inkscape:connector-curvature="0"
       style="fill:#003399" />
  </g>
  <g
     inkscape:groupmode="layer"
     id="layer1"
     inkscape:label="Layer 1" />
</svg>
