<?xml version="1.0" encoding="UTF-8" standalone="no"?>
<!-- Generator: Adobe Illustrator 15.1.0, SVG Export Plug-In . SVG Version: 6.00 Build 0)  -->

<svg
   xmlns:dc="http://purl.org/dc/elements/1.1/"
   xmlns:cc="http://creativecommons.org/ns#"
   xmlns:rdf="http://www.w3.org/1999/02/22-rdf-syntax-ns#"
   xmlns:svg="http://www.w3.org/2000/svg"
   xmlns="http://www.w3.org/2000/svg"
   xmlns:sodipodi="http://sodipodi.sourceforge.net/DTD/sodipodi-0.dtd"
   xmlns:inkscape="http://www.inkscape.org/namespaces/inkscape"
   version="1.1"
   x="0px"
   y="0px"
   width="24px"
   height="24px"
   viewBox="0 0 24 24"
   style="enable-background:new 0 0 24 24;"
   xml:space="preserve"
   id="svg4136"
   inkscape:version="0.91 r13725"
   sodipodi:docname="history.svg"
   inkscape:export-filename="C:\Users\labuschagnepa01\Documents\_Accessories\PA\udrive\www\pa\images\history16.png"
   inkscape:export-xdpi="60"
   inkscape:export-ydpi="60"><metadata
   id="metadata4147"><rdf:RDF><cc:Work
       rdf:about=""><dc:format>image/svg+xml</dc:format><dc:type
         rdf:resource="http://purl.org/dc/dcmitype/StillImage" /><dc:title /></cc:Work></rdf:RDF></metadata><defs
   id="defs4145">
	

		
		
	</defs><sodipodi:namedview
   pagecolor="#ffffff"
   bordercolor="#666666"
   borderopacity="1"
   objecttolerance="10"
   gridtolerance="10"
   guidetolerance="10"
   inkscape:pageopacity="0"
   inkscape:pageshadow="2"
   inkscape:window-width="640"
   inkscape:window-height="480"
   id="namedview4143"
   showgrid="false"
   inkscape:zoom="10.666666"
   inkscape:cx="7.2773442"
   inkscape:cy="13.510403"
   inkscape:current-layer="svg4136" />
<path
   id="clock_hands"
   style="clip-rule:evenodd;fill:#003399;fill-rule:evenodd;stroke:none"
   d="m 18.457441,15.768772 c 0,0 -2.732311,-2.326503 -4.58822,-3.681526 0.824849,-2.8819788 1.949851,-7.886065 1.949851,-7.886065 0,0 -4.983461,6.448081 -5.587204,8.054391 -0.5304233,1.404318 1.671464,2.655941 2.687632,2.017505 2.176683,0.662482 5.537941,1.495695 5.537941,1.495695 z"
   inkscape:connector-curvature="0" /><path
   sodipodi:nodetypes="sscccccssscccccs"
   id="arrow"
   style="clip-rule:evenodd;fill:#003399;fill-rule:evenodd;stroke:none"
   d="m 12.529988,0.14933802 c -6.2757229,0 -11.3599978,5.33592858 -11.3599978,11.92227798 0,2.143749 0.5453166,4.152838 1.4904555,5.888999 l -2.5467199,2.452747 6.5163036,0 0,-6.274946 -2.3668571,2.279613 C 3.6330797,15.109897 3.2710628,13.638248 3.2710628,12.071616 c 0,-5.3683919 4.1460096,-9.7196144 9.2612162,-9.7196144 5.114061,0 9.260071,4.3512225 9.260071,9.7196144 0,5.367189 -3.789231,9.867397 -8.903292,9.867397 -1.313822,0.03132 -0.539023,0.03055 -1.742648,-0.04313 l -0.08319,1.978546 c 1.644511,0.181701 0.325351,0.01604 1.253475,0.115856 6.273436,-2e-6 11.57215,-5.335931 11.57215,-11.919875 C 23.887694,5.4852666 18.803419,0.14933802 12.529988,0.14933802 Z"
   inkscape:connector-curvature="0" />
<g
   id="Guides"
   style="display:none;">
</g>
</svg>