<?xml version="1.0" encoding="UTF-8" standalone="no"?>
<!-- Generator: Adobe Illustrator 15.1.0, SVG Export Plug-In . SVG Version: 6.00 Build 0)  -->

<svg
   xmlns:dc="http://purl.org/dc/elements/1.1/"
   xmlns:cc="http://creativecommons.org/ns#"
   xmlns:rdf="http://www.w3.org/1999/02/22-rdf-syntax-ns#"
   xmlns:svg="http://www.w3.org/2000/svg"
   xmlns="http://www.w3.org/2000/svg"
   xmlns:sodipodi="http://sodipodi.sourceforge.net/DTD/sodipodi-0.dtd"
   xmlns:inkscape="http://www.inkscape.org/namespaces/inkscape"
   version="1.1"
   x="0px"
   y="0px"
   width="24px"
   height="24px"
   viewBox="0 0 24 24"
   style="enable-background:new 0 0 24 24;"
   xml:space="preserve"
   id="svg4136"
   inkscape:version="0.91 r13725"
   sodipodi:docname="history.svg"
   inkscape:export-filename="C:\Users\labuschagnepa01\Documents\_Accessories\PA\udrive\www\pa\images\history32.png"
   inkscape:export-xdpi="121.13506"
   inkscape:export-ydpi="121.13506"><metadata
   id="metadata4147"><rdf:RDF><cc:Work
       rdf:about=""><dc:format>image/svg+xml</dc:format><dc:type
         rdf:resource="http://purl.org/dc/dcmitype/StillImage" /><dc:title /></cc:Work></rdf:RDF></metadata><defs
   id="defs4145">
	
</defs><sodipodi:namedview
   pagecolor="#ffffff"
   bordercolor="#666666"
   borderopacity="1"
   objecttolerance="10"
   gridtolerance="10"
   guidetolerance="10"
   inkscape:pageopacity="0"
   inkscape:pageshadow="2"
   inkscape:window-width="640"
   inkscape:window-height="480"
   id="namedview4143"
   showgrid="false"
   inkscape:zoom="10.666666"
   inkscape:cx="24.133215"
   inkscape:cy="1.6577309"
   inkscape:current-layer="svg4136" />
<g
   style="fill:#003399;stroke:none"
   id="history"
   transform="matrix(1.145623,0,0,1.2023273,-1.3160117,-2.3575144)">
		<path
   inkscape:connector-curvature="0"
   d="m 17.26,15.076 c 0,0 -2.385,-1.935 -4.005,-3.062 0.72,-2.397 1.702,-6.559 1.702,-6.559 0,0 -4.35,5.363 -4.877,6.699 -0.463,1.168 1.459,2.209 2.346,1.678 1.9,0.551 4.834,1.244 4.834,1.244 z"
   style="clip-rule:evenodd;fill:#003399;fill-rule:evenodd;stroke:none"
   id="clock_hands" />
		<path
   inkscape:connector-curvature="0"
   d="m 12.086,2.085 c -5.478,0 -9.916,4.438 -9.916,9.916 0,1.783 0.476,3.454 1.301,4.898 l -2.223,2.04 5.688,0 0,-5.219 -2.066,1.896 C 4.32,14.528 4.004,13.304 4.004,12.001 c 0,-4.465 3.619,-8.084 8.084,-8.084 4.464,0 8.083,3.619 8.083,8.084 0,4.464 -3.307572,8.206915 -7.771572,8.206915 -1.146819,0.02605 -0.470507,0.02541 -1.521136,-0.03587 l -0.07262,1.645597 c 1.435473,0.151124 0.283995,0.01334 1.094143,0.09636 C 17.375819,21.914 22.001,17.476 22.001,12 22,6.523 17.562,2.085 12.086,2.085 Z"
   style="clip-rule:evenodd;fill:#003399;fill-rule:evenodd;stroke:none"
   id="arrow"
   sodipodi:nodetypes="sscccccssscccccs" />
	</g>
<g
   id="Guides"
   style="display:none;">
</g>
</svg>