<?xml version="1.0" encoding="UTF-8" standalone="no"?>
<!-- Created with Inkscape (http://www.inkscape.org/) -->

<svg
   xmlns:dc="http://purl.org/dc/elements/1.1/"
   xmlns:cc="http://creativecommons.org/ns#"
   xmlns:rdf="http://www.w3.org/1999/02/22-rdf-syntax-ns#"
   xmlns:svg="http://www.w3.org/2000/svg"
   xmlns="http://www.w3.org/2000/svg"
   xmlns:sodipodi="http://sodipodi.sourceforge.net/DTD/sodipodi-0.dtd"
   xmlns:inkscape="http://www.inkscape.org/namespaces/inkscape"
   width="16"
   height="16"
   id="svg3336"
   version="1.1"
   inkscape:version="0.91 r13725"
   viewBox="0 0 16 16"
   sodipodi:docname="move.svg"
   inkscape:export-filename="C:\X mini_server\udrive\www\pa\images\move32.png"
   inkscape:export-xdpi="180"
   inkscape:export-ydpi="180">
  <defs
     id="defs3338" />
  <sodipodi:namedview
     id="base"
     pagecolor="#ffffff"
     bordercolor="#666666"
     borderopacity="1.0"
     inkscape:pageopacity="0.0"
     inkscape:pageshadow="2"
     inkscape:zoom="22.395604"
     inkscape:cx="-2.6711607"
     inkscape:cy="3.4306604"
     inkscape:current-layer="layer1"
     showgrid="true"
     inkscape:grid-bbox="true"
     inkscape:document-units="px"
     inkscape:window-width="770"
     inkscape:window-height="640"
     inkscape:window-x="284"
     inkscape:window-y="65"
     inkscape:window-maximized="0"
     inkscape:snap-bbox="true"
     inkscape:bbox-nodes="true">
    <inkscape:grid
       type="xygrid"
       id="grid11680" />
  </sodipodi:namedview>
  <metadata
     id="metadata3341">
    <rdf:RDF>
      <cc:Work
         rdf:about="">
        <dc:format>image/svg+xml</dc:format>
        <dc:type
           rdf:resource="http://purl.org/dc/dcmitype/StillImage" />
        <dc:title />
      </cc:Work>
    </rdf:RDF>
  </metadata>
  <g
     id="layer1"
     inkscape:label="Layer 1"
     inkscape:groupmode="layer"
     transform="translate(0,-16)">
    <g
       id="g3338"
       transform="matrix(0.00945946,0,0,-0.00940565,2.3635126,30.920362)"
       style="fill:#000000">
      <path
         id="path3340"
         d="m 913,1480 q 307,0 523.5,-216.5 Q 1653,1047 1653,740 1653,433 1436.5,216.5 1220,0 913,0 606,0 389.5,216.5 173,433 173,740 173,1047 389.5,1263.5 606,1480 913,1480 Z m 0,-49 Q 627,1431 424.5,1228.5 222,1026 222,740 222,454 424.5,251.5 627,49 913,49 1199,49 1401.5,251.5 1604,454 1604,740 q 0,286 -202.5,488.5 Q 1199,1431 913,1431 Z m 0,-1332 -86,172 49,0 0,406 -40,-23 -37,63 77,45 0,90 74,-1 0,-47 178,103 -24,43 192,11 -106,-161 -25,43 -215,-125 0,-447 49,0 z m -563,675 0,-68 -68,0 0,68 68,0 z m 1125,0 68,0 0,-68 -68,0 0,68 z m -596,528 0,68 68,0 0,-68 -68,0 z m -470,-814 34,-59 -59,-34 -34,59 z m 973,562 59,34 34,-59 -59,-34 z m -217,-814 59,34 34,-59 -59,-34 z m -562,974 -34,58 59,35 34,-59 z m -1,-940 59,-34 -34,-59 -59,34 z m 563,973 34,59 58,-34 -34,-59 z m 219,-814 33,59 59,-34 -34,-59 z m -974,563 -59,34 34,58 59,-34 z"
         inkscape:connector-curvature="0"
         style="fill:#000000" />
    </g>
    <g
       id="g3352"
       transform="matrix(0.00675676,0,0,-0.0063358,-1.1621675,27.248155)"
       style="fill:#003399">
      <path
         id="path3354"
         d="m 1652,740 -404,-404 0,207 -644,0 Q 387,543 304,473.5 221,404 221,224 l 0,-27 -49,0 0,199 q 0,200 30.5,291.5 Q 233,779 322,847 q 117,90 400,90 l 526,0 0,207 z"
         inkscape:connector-curvature="0"
         style="fill:#003399" />
    </g>
  </g>
</svg>
