<?xml version="1.0" encoding="UTF-8" standalone="no"?>
<!-- Created with Inkscape (http://www.inkscape.org/) -->

<svg
   xmlns:dc="http://purl.org/dc/elements/1.1/"
   xmlns:cc="http://creativecommons.org/ns#"
   xmlns:rdf="http://www.w3.org/1999/02/22-rdf-syntax-ns#"
   xmlns:svg="http://www.w3.org/2000/svg"
   xmlns="http://www.w3.org/2000/svg"
   xmlns:sodipodi="http://sodipodi.sourceforge.net/DTD/sodipodi-0.dtd"
   xmlns:inkscape="http://www.inkscape.org/namespaces/inkscape"
   width="16"
   height="16"
   id="svg3336"
   version="1.1"
   inkscape:version="0.91 r13725"
   viewBox="0 0 32 32"
   sodipodi:docname="preview.svg"
   inkscape:export-filename="C:\X mini_server\udrive\www\pa\images\preview32.png"
   inkscape:export-xdpi="180"
   inkscape:export-ydpi="180">
  <defs
     id="defs3338" />
  <sodipodi:namedview
     id="base"
     pagecolor="#ffffff"
     bordercolor="#666666"
     borderopacity="1.0"
     inkscape:pageopacity="0.0"
     inkscape:pageshadow="2"
     inkscape:zoom="10"
     inkscape:cx="1.05"
     inkscape:cy="16"
     inkscape:current-layer="layer1"
     showgrid="true"
     inkscape:grid-bbox="true"
     inkscape:document-units="px"
     inkscape:window-width="1366"
     inkscape:window-height="706"
     inkscape:window-x="-8"
     inkscape:window-y="-8"
     inkscape:window-maximized="1" />
  <metadata
     id="metadata3341">
    <rdf:RDF>
      <cc:Work
         rdf:about="">
        <dc:format>image/svg+xml</dc:format>
        <dc:type
           rdf:resource="http://purl.org/dc/dcmitype/StillImage" />
        <dc:title />
      </cc:Work>
    </rdf:RDF>
  </metadata>
  <g
     id="layer1"
     inkscape:label="Layer 1"
     inkscape:groupmode="layer">
    <g
       inkscape:label="Layer 1"
       id="layer1-3"
       transform="translate(0.01994142,-0.48812462)">
      <g
         transform="matrix(0.02158468,0,0,0.02158468,2.9804927,-1.0741897)"
         inkscape:label="Layer 1"
         id="layer1-1">
        <g
           id="g3374"
           transform="matrix(1,0,0,-1,-307.28571,1529.5051)"
           style="fill:#003399">
          <path
             id="path3376"
             d="m 469,691 0,789 888,0 0,-789 148,0 q 106,0 127,-21 21,-21 21,-127 l 0,-395 Q 1653,47 1629.5,23.5 1606,0 1505,0 L 321,0 Q 220,0 196.5,23.5 173,47 173,148 l 0,395 q 0,106 21,127 21,21 127,21 l 148,0 z m 49,0 790,0 0,740 -790,0 0,-740 z M 321,49 1505,49 q 65,0 82,17 17,17 17,82 l 0,395 q 0,70 -14.5,84.5 Q 1575,642 1505,642 L 321,642 Q 251,642 236.5,627.5 222,613 222,543 l 0,-395 q 0,-65 17,-82 17,-17 82,-17 z m 321,1185 0,49 542,0 0,-49 -542,0 z m 0,-198 0,50 542,0 0,-50 -542,0 z m 0,-197 0,49 542,0 0,-49 -542,0 z m -247,-514 0,40 q 0,46 14,60 14,14 60,14 l 888,0 q 46,0 60,-14 14,-14 14,-60 l 0,-40 q 0,-74 -74,-74 l -888,0 q -74,0 -74,74 z"
             inkscape:connector-curvature="0"
             style="fill:#003399" />
        </g>
      </g>
    </g>
  </g>
</svg>
