<?xml version="1.0" encoding="UTF-8" standalone="no"?>
<!-- Created with Inkscape (http://www.inkscape.org/) -->

<svg
   xmlns:dc="http://purl.org/dc/elements/1.1/"
   xmlns:cc="http://creativecommons.org/ns#"
   xmlns:rdf="http://www.w3.org/1999/02/22-rdf-syntax-ns#"
   xmlns:svg="http://www.w3.org/2000/svg"
   xmlns="http://www.w3.org/2000/svg"
   xmlns:sodipodi="http://sodipodi.sourceforge.net/DTD/sodipodi-0.dtd"
   xmlns:inkscape="http://www.inkscape.org/namespaces/inkscape"
   width="16"
   height="16"
   id="svg3648"
   version="1.1"
   inkscape:version="0.91 r13725"
   viewBox="0 0 16 16"
   sodipodi:docname="status.svg"
   inkscape:export-filename="C:\X mini_server\udrive\www\pa\images\status24.png"
   inkscape:export-xdpi="135"
   inkscape:export-ydpi="135">
  <defs
     id="defs3650" />
  <sodipodi:namedview
     id="base"
     pagecolor="#ffffff"
     bordercolor="#666666"
     borderopacity="1.0"
     inkscape:pageopacity="0.0"
     inkscape:pageshadow="2"
     inkscape:zoom="31.672167"
     inkscape:cx="2.751788"
     inkscape:cy="9.0585724"
     inkscape:current-layer="layer1"
     showgrid="true"
     inkscape:grid-bbox="true"
     inkscape:document-units="px"
     inkscape:window-width="730"
     inkscape:window-height="577"
     inkscape:window-x="361"
     inkscape:window-y="59"
     inkscape:window-maximized="0"
     inkscape:snap-bbox="true"
     inkscape:snap-bbox-edge-midpoints="true">
    <inkscape:grid
       type="xygrid"
       id="grid4155" />
  </sodipodi:namedview>
  <metadata
     id="metadata3653">
    <rdf:RDF>
      <cc:Work
         rdf:about="">
        <dc:format>image/svg+xml</dc:format>
        <dc:type
           rdf:resource="http://purl.org/dc/dcmitype/StillImage" />
        <dc:title />
      </cc:Work>
    </rdf:RDF>
  </metadata>
  <g
     id="layer1"
     inkscape:label="Layer 1"
     inkscape:groupmode="layer"
     transform="translate(0,-16)">
    <g
       id="g4374"
       transform="matrix(0.00918484,0,0,-0.00940439,-1.3777267,27.909091)"
       style="fill:#003399">
      <path
         id="path4376"
         d="M 1892,0 801,0 558,154 Q 494,73 362,39 460,-57 599,-84 l -5,-32 Q 427,-84 316,30 262,16 151,0 l -1,31 q 54,3 147,24 -141,156 -141,346 0,117 38,202 50,113 152,113 92,0 164,-58 l 291,183 1091,0 0,-841 z m -28,29 0,783 -1055,0 -276,-174 q 54,-52 80,-113 15,6 38,6 45,0 77,-32 32,-32 32,-76 0,-44 -32.5,-76 -32.5,-32 -77.5,-32 -40,0 -73.5,34 -33.5,34 -33.5,74 0,50 45,88 -28,64 -81,114 l -37,-25 0,-357 Q 599,164 809,29 l 1055,0 z m -1337,146 -85,53 0,387 43,28 q -68,37 -136,37 -156,0 -156,-283 0,-177 139,-329 79,18 109,33 44,22 86,74 z"
         inkscape:connector-curvature="0"
         style="fill:#003399" />
    </g>
    <ellipse
       style="fill:#0033bb;fill-opacity:1"
       id="path4386-1"
       cx="13.611498"
       cy="25.803917"
       rx="1.769165"
       ry="1.7655935" />
    <ellipse
       style="fill:#00b800;fill-opacity:1"
       id="path4386-1-1"
       cx="13.633892"
       cy="22.158083"
       rx="1.769165"
       ry="1.7655935" />
    <ellipse
       style="fill:#e70000;fill-opacity:1"
       id="path4386-1-7"
       cx="9.5488586"
       cy="25.818464"
       rx="1.769165"
       ry="1.7655935" />
    <ellipse
       style="fill:#cc9900"
       id="path4386-1-1-5"
       cx="9.5712528"
       cy="22.172628"
       rx="1.769165"
       ry="1.7655935" />
  </g>
</svg>
