<?xml version="1.0" encoding="UTF-8" standalone="no"?>
<!-- Created with Inkscape (http://www.inkscape.org/) -->

<svg
   xmlns:dc="http://purl.org/dc/elements/1.1/"
   xmlns:cc="http://creativecommons.org/ns#"
   xmlns:rdf="http://www.w3.org/1999/02/22-rdf-syntax-ns#"
   xmlns:svg="http://www.w3.org/2000/svg"
   xmlns="http://www.w3.org/2000/svg"
   xmlns:sodipodi="http://sodipodi.sourceforge.net/DTD/sodipodi-0.dtd"
   xmlns:inkscape="http://www.inkscape.org/namespaces/inkscape"
   width="16"
   height="16"
   id="svg3648"
   version="1.1"
   inkscape:version="0.91 r13725"
   viewBox="0 0 16 16"
   sodipodi:docname="task.svg"
   inkscape:export-filename="C:\Users\labuschagnepa01\Documents\_Accessories\PA\udrive\www\pa\images\task16.png"
   inkscape:export-xdpi="90"
   inkscape:export-ydpi="90">
  <defs
     id="defs3650" />
  <sodipodi:namedview
     id="base"
     pagecolor="#ffffff"
     bordercolor="#666666"
     borderopacity="1.0"
     inkscape:pageopacity="0.0"
     inkscape:pageshadow="2"
     inkscape:zoom="31.672167"
     inkscape:cx="9.5154209"
     inkscape:cy="8.6462587"
     inkscape:current-layer="layer1"
     showgrid="true"
     inkscape:grid-bbox="true"
     inkscape:document-units="px"
     inkscape:window-width="1366"
     inkscape:window-height="706"
     inkscape:window-x="-8"
     inkscape:window-y="-8"
     inkscape:window-maximized="1"
     inkscape:snap-bbox="true"
     inkscape:bbox-nodes="true"
     inkscape:snap-bbox-midpoints="false"
     inkscape:snap-grids="true"
     inkscape:snap-page="false"
     inkscape:bbox-paths="true"
     inkscape:snap-bbox-edge-midpoints="true"
     inkscape:snap-others="false"
     inkscape:snap-object-midpoints="true"
     inkscape:snap-center="true"
     inkscape:snap-midpoints="false"
     inkscape:snap-smooth-nodes="false"
     inkscape:object-nodes="false"
     inkscape:snap-intersection-paths="false"
     inkscape:object-paths="false"
     inkscape:snap-to-guides="false"
     inkscape:snap-nodes="false"
     inkscape:snap-global="false">
    <inkscape:grid
       type="xygrid"
       id="grid9972" />
  </sodipodi:namedview>
  <metadata
     id="metadata3653">
    <rdf:RDF>
      <cc:Work
         rdf:about="">
        <dc:format>image/svg+xml</dc:format>
        <dc:type
           rdf:resource="http://purl.org/dc/dcmitype/StillImage" />
        <dc:title />
      </cc:Work>
    </rdf:RDF>
  </metadata>
  <g
     id="layer1"
     inkscape:label="Layer 1"
     inkscape:groupmode="layer"
     transform="translate(0,-16)">
    <g
       id="g3338"
       transform="matrix(0.01075743,0,0,-0.01075743,-1.8225283,32.031557)"
       style="fill:#003399;stroke:#003399">
      <path
         style="fill:none;fill-rule:evenodd;stroke:#003399;stroke-width:92.95900726px;stroke-linecap:butt;stroke-linejoin:round;stroke-opacity:1"
         d="m 1119.0747,1327.3588 -77.9633,23.8099 -719.06779,2.2703 -79.72838,-29.0152 -26.41534,-77.0343 0,-1197.976523 929.59011,0 0,1197.976523 z"
         id="path4192"
         inkscape:connector-curvature="0"
         sodipodi:nodetypes="ccccccccc" />
      <path
         style="fill:none;fill-rule:evenodd;stroke:#003399;stroke-width:92.95900726px;stroke-linecap:round;stroke-linejoin:miter;stroke-opacity:1"
         d="m 549.60467,1440.8515 c 278.82859,2.935 278.82859,2.935 278.82859,2.935"
         id="path4202"
         inkscape:connector-curvature="0" />
      <path
         style="fill:none;fill-rule:evenodd;stroke:#003399;stroke-width:92.95900726px;stroke-linecap:butt;stroke-linejoin:round;stroke-opacity:1"
         d="m 680.71887,1296.0356 -278.87702,-92.959 464.79503,0 92.95903,0 z"
         id="path4208"
         inkscape:connector-curvature="0" />
    </g>
    <g
       id="g3352"
       transform="matrix(0.00503956,0,0,-0.00585241,3.7334946,27.029366)">
      <path
         id="path3354"
         d="m 74,-37 330,507 1375,1047 q 236,-71 257,-333 L 657,137 Z m 1460,1305 q 151,-80 188,-254 l 257,195 q -35,184 -190,251 z M 526,502 q 17,4 28,4 40,0 40,-38 l -1,-10 829,635 q -33,25 -65,39 z m 96,-82 q 46,-11 46,-59 l 833,638 q -15,33 -42,59 z m 75,-98 q 19,-1 28,-9.5 9,-8.5 9,-24.5 0,-14 -13,-41 l 828,633 q -12,43 -26,75 z M 258,157 315,85 626,177 q 68,60 68,89 0,12 -6.5,17.5 -6.5,5.5 -20.5,5.5 -29,0 -100,-35 60,57 60,95 0,19 -10.5,28.5 -10.5,9.5 -32.5,9.5 -23,0 -94,-34 63,54 63,95 0,11 -6,16.5 -6,5.5 -19,5.5 -45,0 -96,-39 z"
         inkscape:connector-curvature="0"
         style="fill:currentColor" />
    </g>
    <rect
       style="fill:#003399"
       id="rect3364-6"
       width="1.967073"
       height="1.4445692"
       x="2.0164635"
       y="20.277716"
       inkscape:transform-center-x="-0.063146927"
       inkscape:transform-center-y="-0.75776312" />
    <rect
       style="fill:#003399"
       id="rect3364-6-7"
       width="1.967073"
       height="1.4445692"
       x="2.0164635"
       y="22.277716" />
    <rect
       style="fill:#003399"
       id="rect3364-6-7-6"
       width="1.967073"
       height="1.4445692"
       x="2.0164635"
       y="24.277716" />
    <rect
       style="fill:#003399"
       id="rect3364-6-7-6-6"
       width="1.967073"
       height="1.4445692"
       x="2.0164635"
       y="26.277716" />
    <rect
       style="fill:#003399"
       id="rect3364-6-7-6-6-0"
       width="1.967073"
       height="1.4445692"
       x="2.0164635"
       y="28.277716" />
  </g>
</svg>
